<mxfile host="Electron" modified="2024-10-23T17:08:41.543Z" agent="Mozilla/5.0 (Windows NT 10.0; Win64; x64) AppleWebKit/537.36 (KHTML, like Gecko) draw.io/24.1.0 Chrome/120.0.6099.109 Electron/28.1.0 Safari/537.36" etag="sxB3M9bRu7ffEkXJ4fQI" version="24.1.0" type="device">
  <diagram name="PÃ¡gina-1" id="HnM5bIwWVijFqjH4xQIT">
    <mxGraphModel dx="1303" dy="1553" grid="1" gridSize="10" guides="1" tooltips="1" connect="1" arrows="1" fold="1" page="1" pageScale="1" pageWidth="827" pageHeight="1169" math="0" shadow="0">
      <root>
        <mxCell id="0" />
        <mxCell id="1" parent="0" />
        <mxCell id="9hvnd5XY3FECfgj-unJh-1" value="&lt;div&gt;&lt;div&gt;&lt;b&gt;Backend&lt;/b&gt;&lt;/div&gt;&lt;/div&gt;&lt;div&gt;&lt;b&gt;&lt;br&gt;&lt;/b&gt;&lt;/div&gt;&lt;div&gt;&lt;b&gt;&lt;br&gt;&lt;/b&gt;&lt;/div&gt;&lt;div&gt;&lt;b&gt;&lt;br&gt;&lt;/b&gt;&lt;/div&gt;&lt;div&gt;&lt;b&gt;&lt;br&gt;&lt;/b&gt;&lt;/div&gt;&lt;div&gt;&lt;b&gt;&lt;br&gt;&lt;/b&gt;&lt;/div&gt;&lt;div&gt;&lt;b&gt;&lt;br&gt;&lt;/b&gt;&lt;/div&gt;&lt;div&gt;&lt;b&gt;&lt;br&gt;&lt;/b&gt;&lt;/div&gt;&lt;div&gt;&lt;b&gt;&lt;br&gt;&lt;/b&gt;&lt;/div&gt;&lt;div&gt;&lt;b&gt;&lt;br&gt;&lt;/b&gt;&lt;/div&gt;&lt;div&gt;&lt;b&gt;&lt;br&gt;&lt;/b&gt;&lt;/div&gt;&lt;div&gt;&lt;b&gt;&lt;br&gt;&lt;/b&gt;&lt;/div&gt;&lt;div&gt;&lt;b&gt;&lt;br&gt;&lt;/b&gt;&lt;/div&gt;&lt;div&gt;&lt;b&gt;&lt;br&gt;&lt;/b&gt;&lt;/div&gt;&lt;div&gt;&lt;b&gt;&lt;br&gt;&lt;/b&gt;&lt;/div&gt;&lt;div&gt;&lt;b&gt;&lt;br&gt;&lt;/b&gt;&lt;/div&gt;&lt;div&gt;&lt;b&gt;&lt;br&gt;&lt;/b&gt;&lt;/div&gt;&lt;div&gt;&lt;b&gt;&lt;br&gt;&lt;/b&gt;&lt;/div&gt;&lt;div&gt;&lt;b&gt;&lt;br&gt;&lt;/b&gt;&lt;/div&gt;&lt;div&gt;&lt;b&gt;&lt;br&gt;&lt;/b&gt;&lt;/div&gt;&lt;div&gt;&lt;b&gt;&lt;br&gt;&lt;/b&gt;&lt;/div&gt;&lt;div&gt;&lt;b&gt;&lt;br&gt;&lt;/b&gt;&lt;/div&gt;&lt;div&gt;&lt;b&gt;&lt;br&gt;&lt;/b&gt;&lt;/div&gt;&lt;div&gt;&lt;b&gt;&lt;br&gt;&lt;/b&gt;&lt;/div&gt;&lt;div&gt;&lt;b&gt;&lt;br&gt;&lt;/b&gt;&lt;/div&gt;&lt;div&gt;&lt;b&gt;&lt;br&gt;&lt;/b&gt;&lt;/div&gt;&lt;div&gt;&lt;b&gt;&lt;br&gt;&lt;/b&gt;&lt;/div&gt;&lt;div&gt;&lt;b&gt;&lt;br&gt;&lt;/b&gt;&lt;/div&gt;&lt;div&gt;&lt;b&gt;&lt;br&gt;&lt;/b&gt;&lt;/div&gt;&lt;div&gt;&lt;b&gt;&lt;br&gt;&lt;/b&gt;&lt;/div&gt;&lt;div&gt;&lt;b&gt;&lt;br&gt;&lt;/b&gt;&lt;/div&gt;&lt;div&gt;&lt;b&gt;&lt;br&gt;&lt;/b&gt;&lt;/div&gt;&lt;div&gt;&lt;b&gt;&lt;br&gt;&lt;/b&gt;&lt;/div&gt;&lt;div&gt;&lt;b&gt;&lt;br&gt;&lt;/b&gt;&lt;/div&gt;&lt;div&gt;&lt;b&gt;&lt;br&gt;&lt;/b&gt;&lt;/div&gt;&lt;div&gt;&lt;b&gt;&lt;br&gt;&lt;/b&gt;&lt;/div&gt;&lt;div&gt;&lt;b&gt;&lt;br&gt;&lt;/b&gt;&lt;/div&gt;&lt;div&gt;&lt;b&gt;&lt;br&gt;&lt;/b&gt;&lt;/div&gt;&lt;div&gt;&lt;b&gt;&lt;br&gt;&lt;/b&gt;&lt;/div&gt;&lt;div&gt;&lt;b&gt;&lt;br&gt;&lt;/b&gt;&lt;/div&gt;&lt;div&gt;&lt;b&gt;&lt;br&gt;&lt;/b&gt;&lt;/div&gt;&lt;div&gt;&lt;b&gt;&lt;br&gt;&lt;/b&gt;&lt;/div&gt;&lt;div&gt;&lt;b&gt;&lt;br&gt;&lt;/b&gt;&lt;/div&gt;&lt;div&gt;&lt;b&gt;&lt;br&gt;&lt;/b&gt;&lt;/div&gt;&lt;div&gt;&lt;b&gt;&lt;br&gt;&lt;/b&gt;&lt;/div&gt;&lt;div&gt;&lt;b&gt;&lt;br&gt;&lt;/b&gt;&lt;/div&gt;&lt;div&gt;&lt;b&gt;&lt;br&gt;&lt;/b&gt;&lt;/div&gt;&lt;div&gt;&lt;b&gt;&lt;br&gt;&lt;/b&gt;&lt;/div&gt;&lt;div&gt;&lt;b&gt;&lt;br&gt;&lt;/b&gt;&lt;/div&gt;&lt;div&gt;&lt;b&gt;&lt;br&gt;&lt;/b&gt;&lt;/div&gt;&lt;div&gt;&lt;b&gt;&lt;br&gt;&lt;/b&gt;&lt;/div&gt;&lt;div&gt;&lt;b&gt;&lt;br&gt;&lt;/b&gt;&lt;/div&gt;&lt;div&gt;&lt;b&gt;&lt;br&gt;&lt;/b&gt;&lt;/div&gt;" style="html=1;dropTarget=0;whiteSpace=wrap;" parent="1" vertex="1">
          <mxGeometry x="230" y="280" width="800" height="839" as="geometry" />
        </mxCell>
        <mxCell id="9hvnd5XY3FECfgj-unJh-2" value="" style="shape=module;jettyWidth=8;jettyHeight=4;" parent="9hvnd5XY3FECfgj-unJh-1" vertex="1">
          <mxGeometry x="1" width="20" height="20" relative="1" as="geometry">
            <mxPoint x="-27" y="7" as="offset" />
          </mxGeometry>
        </mxCell>
        <mxCell id="FrU_MKhS-f08o_FxN1Jl-1" value="&lt;div&gt;Infrastructure&lt;/div&gt;&lt;div&gt;&lt;br&gt;&lt;/div&gt;&lt;div&gt;&lt;br&gt;&lt;/div&gt;&lt;div&gt;&lt;br&gt;&lt;/div&gt;" style="shape=folder;fontStyle=1;spacingTop=10;tabWidth=40;tabHeight=14;tabPosition=left;html=1;whiteSpace=wrap;" parent="1" vertex="1">
          <mxGeometry x="270" y="370" width="710" height="110" as="geometry" />
        </mxCell>
        <mxCell id="FrU_MKhS-f08o_FxN1Jl-2" value="Interface Adapters&lt;div&gt;&lt;br&gt;&lt;/div&gt;&lt;div&gt;&lt;br&gt;&lt;/div&gt;&lt;div&gt;&lt;br&gt;&lt;/div&gt;&lt;div&gt;&lt;br&gt;&lt;/div&gt;" style="shape=folder;fontStyle=1;spacingTop=10;tabWidth=40;tabHeight=14;tabPosition=left;html=1;whiteSpace=wrap;" parent="1" vertex="1">
          <mxGeometry x="270" y="560" width="710" height="110" as="geometry" />
        </mxCell>
        <mxCell id="FrU_MKhS-f08o_FxN1Jl-3" value="Application Services/Use Case Services&lt;div&gt;&lt;br&gt;&lt;/div&gt;&lt;div&gt;&lt;br&gt;&lt;/div&gt;&lt;div&gt;&lt;br&gt;&lt;/div&gt;&lt;div&gt;&lt;br&gt;&lt;/div&gt;" style="shape=folder;fontStyle=1;spacingTop=10;tabWidth=40;tabHeight=14;tabPosition=left;html=1;whiteSpace=wrap;" parent="1" vertex="1">
          <mxGeometry x="270" y="750" width="710" height="110" as="geometry" />
        </mxCell>
        <mxCell id="FrU_MKhS-f08o_FxN1Jl-4" value="Domain Business Layer&lt;div&gt;&lt;br&gt;&lt;/div&gt;&lt;div&gt;&lt;br&gt;&lt;/div&gt;&lt;div&gt;&lt;br&gt;&lt;/div&gt;&lt;div&gt;&lt;br&gt;&lt;/div&gt;" style="shape=folder;fontStyle=1;spacingTop=10;tabWidth=40;tabHeight=14;tabPosition=left;html=1;whiteSpace=wrap;" parent="1" vertex="1">
          <mxGeometry x="270" y="940" width="710" height="130" as="geometry" />
        </mxCell>
        <mxCell id="FrU_MKhS-f08o_FxN1Jl-26" value="" style="ellipse;whiteSpace=wrap;html=1;align=center;aspect=fixed;fillColor=none;strokeColor=none;resizable=0;perimeter=centerPerimeter;rotatable=0;allowArrows=0;points=[];outlineConnect=1;" parent="1" vertex="1">
          <mxGeometry x="860" y="350" width="10" height="10" as="geometry" />
        </mxCell>
        <mxCell id="FrU_MKhS-f08o_FxN1Jl-41" value="" style="ellipse;whiteSpace=wrap;html=1;align=center;aspect=fixed;fillColor=none;strokeColor=none;resizable=0;perimeter=centerPerimeter;rotatable=0;allowArrows=0;points=[];outlineConnect=1;" parent="1" vertex="1">
          <mxGeometry x="320" y="520" width="10" height="10" as="geometry" />
        </mxCell>
        <mxCell id="FrU_MKhS-f08o_FxN1Jl-45" value="" style="ellipse;whiteSpace=wrap;html=1;align=center;aspect=fixed;fillColor=none;strokeColor=none;resizable=0;perimeter=centerPerimeter;rotatable=0;allowArrows=0;points=[];outlineConnect=1;" parent="1" vertex="1">
          <mxGeometry x="395" y="550" width="10" height="10" as="geometry" />
        </mxCell>
        <mxCell id="FrU_MKhS-f08o_FxN1Jl-50" value="" style="ellipse;whiteSpace=wrap;html=1;align=center;aspect=fixed;fillColor=none;strokeColor=none;resizable=0;perimeter=centerPerimeter;rotatable=0;allowArrows=0;points=[];outlineConnect=1;" parent="1" vertex="1">
          <mxGeometry x="870" y="520" width="10" height="10" as="geometry" />
        </mxCell>
        <mxCell id="FrU_MKhS-f08o_FxN1Jl-54" value="" style="ellipse;whiteSpace=wrap;html=1;align=center;aspect=fixed;fillColor=none;strokeColor=none;resizable=0;perimeter=centerPerimeter;rotatable=0;allowArrows=0;points=[];outlineConnect=1;" parent="1" vertex="1">
          <mxGeometry x="605" y="820" width="10" height="10" as="geometry" />
        </mxCell>
        <mxCell id="FrU_MKhS-f08o_FxN1Jl-57" value="" style="ellipse;whiteSpace=wrap;html=1;align=center;aspect=fixed;fillColor=none;strokeColor=none;resizable=0;perimeter=centerPerimeter;rotatable=0;allowArrows=0;points=[];outlineConnect=1;" parent="1" vertex="1">
          <mxGeometry x="660" y="780" width="10" height="10" as="geometry" />
        </mxCell>
        <mxCell id="FrU_MKhS-f08o_FxN1Jl-59" value="" style="ellipse;whiteSpace=wrap;html=1;align=center;aspect=fixed;fillColor=none;strokeColor=none;resizable=0;perimeter=centerPerimeter;rotatable=0;allowArrows=0;points=[];outlineConnect=1;" parent="1" vertex="1">
          <mxGeometry x="710" y="810" width="10" height="10" as="geometry" />
        </mxCell>
        <mxCell id="FrU_MKhS-f08o_FxN1Jl-62" value="" style="ellipse;whiteSpace=wrap;html=1;align=center;aspect=fixed;fillColor=none;strokeColor=none;resizable=0;perimeter=centerPerimeter;rotatable=0;allowArrows=0;points=[];outlineConnect=1;" parent="1" vertex="1">
          <mxGeometry x="740" y="910" width="10" height="10" as="geometry" />
        </mxCell>
        <mxCell id="FrU_MKhS-f08o_FxN1Jl-65" value="" style="ellipse;whiteSpace=wrap;html=1;align=center;aspect=fixed;fillColor=none;strokeColor=none;resizable=0;perimeter=centerPerimeter;rotatable=0;allowArrows=0;points=[];outlineConnect=1;" parent="1" vertex="1">
          <mxGeometry x="605" y="800" width="10" height="10" as="geometry" />
        </mxCell>
        <mxCell id="A2ywOIGyB0RuOM0g9SC5-1" value="Routes" style="shape=folder;fontStyle=1;spacingTop=10;tabWidth=40;tabHeight=14;tabPosition=left;html=1;whiteSpace=wrap;" vertex="1" parent="1">
          <mxGeometry x="290" y="400" width="130" height="60" as="geometry" />
        </mxCell>
        <mxCell id="A2ywOIGyB0RuOM0g9SC5-2" value="Controllers" style="shape=folder;fontStyle=1;spacingTop=10;tabWidth=40;tabHeight=14;tabPosition=left;html=1;whiteSpace=wrap;" vertex="1" parent="1">
          <mxGeometry x="300" y="590" width="130" height="60" as="geometry" />
        </mxCell>
        <mxCell id="A2ywOIGyB0RuOM0g9SC5-3" value="" style="endArrow=open;endSize=12;dashed=1;html=1;rounded=0;exitX=0.75;exitY=1;exitDx=0;exitDy=0;exitPerimeter=0;entryX=0;entryY=0;entryDx=85;entryDy=14;entryPerimeter=0;" edge="1" parent="1" source="A2ywOIGyB0RuOM0g9SC5-1" target="A2ywOIGyB0RuOM0g9SC5-2">
          <mxGeometry width="160" relative="1" as="geometry">
            <mxPoint x="380" y="570" as="sourcePoint" />
            <mxPoint x="540" y="570" as="targetPoint" />
          </mxGeometry>
        </mxCell>
        <mxCell id="A2ywOIGyB0RuOM0g9SC5-5" value="" style="endArrow=open;endSize=12;dashed=1;html=1;rounded=0;exitX=0.75;exitY=1;exitDx=0;exitDy=0;exitPerimeter=0;entryX=0;entryY=0;entryDx=20;entryDy=0;entryPerimeter=0;" edge="1" parent="1" source="A2ywOIGyB0RuOM0g9SC5-2" target="A2ywOIGyB0RuOM0g9SC5-4">
          <mxGeometry width="160" relative="1" as="geometry">
            <mxPoint x="383" y="650" as="sourcePoint" />
            <mxPoint x="380" y="794" as="targetPoint" />
          </mxGeometry>
        </mxCell>
        <mxCell id="A2ywOIGyB0RuOM0g9SC5-6" value="" style="endArrow=none;html=1;rounded=0;" edge="1" parent="1" target="A2ywOIGyB0RuOM0g9SC5-4">
          <mxGeometry width="50" height="50" relative="1" as="geometry">
            <mxPoint x="440" y="820" as="sourcePoint" />
            <mxPoint x="840" y="820" as="targetPoint" />
          </mxGeometry>
        </mxCell>
        <mxCell id="A2ywOIGyB0RuOM0g9SC5-4" value="App Services" style="shape=folder;fontStyle=1;spacingTop=10;tabWidth=40;tabHeight=14;tabPosition=left;html=1;whiteSpace=wrap;" vertex="1" parent="1">
          <mxGeometry x="370" y="780" width="140" height="60" as="geometry" />
        </mxCell>
        <mxCell id="A2ywOIGyB0RuOM0g9SC5-7" value="Aggregates" style="shape=folder;fontStyle=1;spacingTop=10;tabWidth=40;tabHeight=14;tabPosition=left;html=1;whiteSpace=wrap;" vertex="1" parent="1">
          <mxGeometry x="314" y="990" width="100" height="60" as="geometry" />
        </mxCell>
        <mxCell id="A2ywOIGyB0RuOM0g9SC5-8" value="Value Objects" style="shape=folder;fontStyle=1;spacingTop=10;tabWidth=40;tabHeight=14;tabPosition=left;html=1;whiteSpace=wrap;" vertex="1" parent="1">
          <mxGeometry x="470" y="990" width="100" height="60" as="geometry" />
        </mxCell>
        <mxCell id="A2ywOIGyB0RuOM0g9SC5-9" value="Services&lt;span style=&quot;color: rgba(0, 0, 0, 0); font-family: monospace; font-size: 0px; font-weight: 400; text-align: start; text-wrap: nowrap;&quot;&gt;%3CmxGraphModel%3E%3Croot%3E%3CmxCell%20id%3D%220%22%2F%3E%3CmxCell%20id%3D%221%22%20parent%3D%220%22%2F%3E%3CmxCell%20id%3D%222%22%20value%3D%22Aggregates%22%20style%3D%22shape%3Dfolder%3BfontStyle%3D1%3BspacingTop%3D10%3BtabWidth%3D40%3BtabHeight%3D14%3BtabPosition%3Dleft%3Bhtml%3D1%3BwhiteSpace%3Dwrap%3B%22%20vertex%3D%221%22%20parent%3D%221%22%3E%3CmxGeometry%20x%3D%22314%22%20y%3D%22970%22%20width%3D%22100%22%20height%3D%2260%22%20as%3D%22geometry%22%2F%3E%3C%2FmxCell%3E%3C%2Froot%3E%3C%2FmxGraphModel%3E&lt;/span&gt;" style="shape=folder;fontStyle=1;spacingTop=10;tabWidth=40;tabHeight=14;tabPosition=left;html=1;whiteSpace=wrap;" vertex="1" parent="1">
          <mxGeometry x="630" y="990" width="100" height="60" as="geometry" />
        </mxCell>
        <mxCell id="A2ywOIGyB0RuOM0g9SC5-10" value="IRepositories" style="shape=folder;fontStyle=1;spacingTop=10;tabWidth=40;tabHeight=14;tabPosition=left;html=1;whiteSpace=wrap;" vertex="1" parent="1">
          <mxGeometry x="790" y="990" width="100" height="60" as="geometry" />
        </mxCell>
        <mxCell id="A2ywOIGyB0RuOM0g9SC5-11" value="" style="endArrow=open;endSize=12;dashed=1;html=1;rounded=0;exitX=0.127;exitY=1.029;exitDx=0;exitDy=0;exitPerimeter=0;entryX=0;entryY=0;entryDx=70;entryDy=14;entryPerimeter=0;" edge="1" parent="1" source="A2ywOIGyB0RuOM0g9SC5-4" target="A2ywOIGyB0RuOM0g9SC5-7">
          <mxGeometry width="160" relative="1" as="geometry">
            <mxPoint x="388" y="860" as="sourcePoint" />
            <mxPoint x="380" y="990" as="targetPoint" />
          </mxGeometry>
        </mxCell>
        <mxCell id="A2ywOIGyB0RuOM0g9SC5-12" value="" style="endArrow=open;endSize=12;dashed=1;html=1;rounded=0;exitX=0.342;exitY=1.01;exitDx=0;exitDy=0;exitPerimeter=0;entryX=0;entryY=0;entryDx=20;entryDy=0;entryPerimeter=0;" edge="1" parent="1" source="A2ywOIGyB0RuOM0g9SC5-4" target="A2ywOIGyB0RuOM0g9SC5-8">
          <mxGeometry width="160" relative="1" as="geometry">
            <mxPoint x="444" y="850" as="sourcePoint" />
            <mxPoint x="436" y="980" as="targetPoint" />
          </mxGeometry>
        </mxCell>
        <mxCell id="A2ywOIGyB0RuOM0g9SC5-13" value="" style="endArrow=open;endSize=12;dashed=1;html=1;rounded=0;exitX=0.617;exitY=1.017;exitDx=0;exitDy=0;exitPerimeter=0;entryX=0;entryY=0;entryDx=20;entryDy=0;entryPerimeter=0;" edge="1" parent="1" source="A2ywOIGyB0RuOM0g9SC5-4" target="A2ywOIGyB0RuOM0g9SC5-9">
          <mxGeometry width="160" relative="1" as="geometry">
            <mxPoint x="518" y="860" as="sourcePoint" />
            <mxPoint x="510" y="990" as="targetPoint" />
          </mxGeometry>
        </mxCell>
        <mxCell id="A2ywOIGyB0RuOM0g9SC5-14" value="" style="endArrow=open;endSize=12;dashed=1;html=1;rounded=0;exitX=0.875;exitY=1.017;exitDx=0;exitDy=0;exitPerimeter=0;entryX=0;entryY=0;entryDx=20;entryDy=0;entryPerimeter=0;" edge="1" parent="1" source="A2ywOIGyB0RuOM0g9SC5-4" target="A2ywOIGyB0RuOM0g9SC5-10">
          <mxGeometry width="160" relative="1" as="geometry">
            <mxPoint x="558" y="850" as="sourcePoint" />
            <mxPoint x="550" y="980" as="targetPoint" />
          </mxGeometry>
        </mxCell>
        <mxCell id="A2ywOIGyB0RuOM0g9SC5-15" value="Repositories" style="shape=folder;fontStyle=1;spacingTop=10;tabWidth=40;tabHeight=14;tabPosition=left;html=1;whiteSpace=wrap;" vertex="1" parent="1">
          <mxGeometry x="800" y="600" width="150" height="50" as="geometry" />
        </mxCell>
        <mxCell id="A2ywOIGyB0RuOM0g9SC5-16" value="Persistence" style="shape=folder;fontStyle=1;spacingTop=10;tabWidth=40;tabHeight=14;tabPosition=left;html=1;whiteSpace=wrap;" vertex="1" parent="1">
          <mxGeometry x="805" y="405" width="155" height="50" as="geometry" />
        </mxCell>
        <mxCell id="A2ywOIGyB0RuOM0g9SC5-17" value="" style="endArrow=open;endSize=12;dashed=1;html=1;rounded=0;exitX=0;exitY=0;exitDx=95;exitDy=14;exitPerimeter=0;entryX=0.5;entryY=1;entryDx=0;entryDy=0;entryPerimeter=0;" edge="1" parent="1" source="A2ywOIGyB0RuOM0g9SC5-15" target="A2ywOIGyB0RuOM0g9SC5-16">
          <mxGeometry width="160" relative="1" as="geometry">
            <mxPoint x="880" y="585" as="sourcePoint" />
            <mxPoint x="872" y="715" as="targetPoint" />
          </mxGeometry>
        </mxCell>
        <mxCell id="A2ywOIGyB0RuOM0g9SC5-18" value="" style="endArrow=block;dashed=1;endFill=0;endSize=12;html=1;rounded=0;exitX=0.5;exitY=1;exitDx=0;exitDy=0;exitPerimeter=0;entryX=0;entryY=0;entryDx=70;entryDy=14;entryPerimeter=0;" edge="1" parent="1" source="A2ywOIGyB0RuOM0g9SC5-15" target="A2ywOIGyB0RuOM0g9SC5-10">
          <mxGeometry width="160" relative="1" as="geometry">
            <mxPoint x="540" y="880" as="sourcePoint" />
            <mxPoint x="700" y="880" as="targetPoint" />
          </mxGeometry>
        </mxCell>
      </root>
    </mxGraphModel>
  </diagram>
</mxfile>
